<svg width="100" height="100" viewBox="0 0 100 100" fill="none" xmlns="http://www.w3.org/2000/svg">
<g clip-path="url(#clip0_40_10)">
<path d="M64.0833 59.8333H60.7917L59.625 58.7083C63.7083 53.9583 66.1667 47.7917 66.1667 41.0833C66.1667 26.125 54.0417 14 39.0833 14C24.125 14 12 26.125 12 41.0833C12 56.0417 24.125 68.1667 39.0833 68.1667C45.7917 68.1667 51.9583 65.7083 56.7083 61.625L57.8333 62.7917V66.0833L78.6667 86.875L84.875 80.6667L64.0833 59.8333ZM39.0833 59.8333C28.7083 59.8333 20.3333 51.4583 20.3333 41.0833C20.3333 30.7083 28.7083 22.3333 39.0833 22.3333C49.4583 22.3333 57.8333 30.7083 57.8333 41.0833C57.8333 51.4583 49.4583 59.8333 39.0833 59.8333Z" fill="url(#paint0_linear_40_10)"/>
</g>
<defs>
<linearGradient id="paint0_linear_40_10" x1="12" y1="14" x2="84.875" y2="86.875" gradientUnits="userSpaceOnUse">
<stop stop-color="#2AFADF"/>
<stop offset="1" stop-color="#4C83FF"/>
</linearGradient>
<clipPath id="clip0_40_10">
<rect width="100" height="100" fill="white"/>
</clipPath>
</defs>
</svg>
